<?xml version="1.0" encoding="UTF-8" standalone="no"?>
<!-- Created with Inkscape (http://www.inkscape.org/) -->

<svg
   xmlns:dc="http://purl.org/dc/elements/1.1/"
   xmlns:cc="http://creativecommons.org/ns#"
   xmlns:rdf="http://www.w3.org/1999/02/22-rdf-syntax-ns#"
   xmlns:svg="http://www.w3.org/2000/svg"
   xmlns="http://www.w3.org/2000/svg"
   xmlns:sodipodi="http://sodipodi.sourceforge.net/DTD/sodipodi-0.dtd"
   xmlns:inkscape="http://www.inkscape.org/namespaces/inkscape"
   width="744.09448819"
   height="1052.3622047"
   id="svg2985"
   version="1.1"
   inkscape:version="0.48.2 r9819"
   sodipodi:docname="Neues Dokument 2">
  <defs
     id="defs2987" />
  <sodipodi:namedview
     id="base"
     pagecolor="#ffffff"
     bordercolor="#ffffff"
     borderopacity="0.0"
     inkscape:pageopacity="0.0"
     inkscape:pageshadow="0"
     inkscape:zoom="1.979899"
     inkscape:cx="148.1848"
     inkscape:cy="461.57096"
     inkscape:document-units="px"
     inkscape:current-layer="layer1"
     showgrid="false"
     inkscape:window-width="1680"
     inkscape:window-height="1028"
     inkscape:window-x="-8"
     inkscape:window-y="-8"
     inkscape:window-maximized="1" />
  <metadata
     id="metadata2990">
    <rdf:RDF>
      <cc:Work
         rdf:about="">
        <dc:format>image/svg+xml</dc:format>
        <dc:type
           rdf:resource="http://purl.org/dc/dcmitype/StillImage" />
        <dc:title></dc:title>
      </cc:Work>
    </rdf:RDF>
  </metadata>
  <g
     inkscape:label="Layer 1"
     inkscape:groupmode="layer"
     id="layer1">
    <g
       id="g3826"
       transform="translate(-215.71429,-79.285714)">
      <g
         style="stroke:#000000;stroke-opacity:1"
         transform="translate(-0.50508035,-0.25253814)"
         id="g3822">
        <path
           style="fill:none;stroke:#000000;stroke-width:19.95678139;stroke-linecap:round;stroke-linejoin:round;stroke-miterlimit:4;stroke-opacity:1;stroke-dasharray:none"
           d="m 242.49518,584.9819 0,42.49385"
           id="path3048"
           inkscape:connector-curvature="0"
           sodipodi:nodetypes="cc" />
        <path
           style="fill:none;stroke:#000000;stroke-width:12.60000038;stroke-linecap:round;stroke-linejoin:round;stroke-miterlimit:4;stroke-opacity:1;stroke-dasharray:none"
           d="m 219.95615,617.9966 21.97082,21.97081 23.10724,-23.10724"
           id="path3050"
           inkscape:connector-curvature="0" />
      </g>
      <path
         inkscape:connector-curvature="0"
         id="path3820"
         d="m 202.84669,638.70471 0,21.46574 78.28682,0 0,-21.46574"
         style="fill:none;stroke:#000000;stroke-width:11.19999981;stroke-linecap:round;stroke-linejoin:round;stroke-miterlimit:4;stroke-opacity:1;stroke-dasharray:none" />
    </g>
    <g
       id="g4368"
       transform="matrix(1.1309516,0,0,1.1309516,-349.20225,64.038261)">
      <g
         transform="translate(-67.142857,14.464286)"
         id="g4322">
        <path
           sodipodi:type="arc"
           style="fill:none;stroke:#000000;stroke-width:5.9000001;stroke-linecap:round;stroke-linejoin:round;stroke-miterlimit:4;stroke-opacity:1;stroke-dasharray:none"
           id="path4306"
           sodipodi:cx="477.23215"
           sodipodi:cy="401.38004"
           sodipodi:rx="18.778011"
           sodipodi:ry="18.778011"
           d="m 496.01016,401.38004 c 0,10.3708 -8.4072,18.77801 -18.77801,18.77801 -10.37081,0 -18.77801,-8.40721 -18.77801,-18.77801 0,-10.37081 8.4072,-18.77802 18.77801,-18.77802 10.37081,0 18.77801,8.40721 18.77801,18.77802 z"
           transform="translate(0.17857142,-0.53571428)" />
        <rect
           style="fill:#000000;fill-opacity:1;stroke:none"
           id="rect4308"
           width="16.827538"
           height="15.220252"
           x="469.24316"
           y="369.48416"
           ry="3.7500002" />
        <rect
           ry="3.7500002"
           y="-137.55888"
           x="606.41736"
           height="15.220252"
           width="16.827538"
           id="rect4310"
           style="fill:#000000;fill-opacity:1;stroke:none"
           transform="matrix(0.64610481,0.7632487,-0.7632487,0.64610481,0,0)" />
        <rect
           style="fill:#000000;fill-opacity:1;stroke:none"
           id="rect4312"
           width="16.827538"
           height="15.220252"
           x="330.79105"
           y="-555.76855"
           ry="3.7500002"
           transform="matrix(-0.12581932,0.99205317,-0.99205317,-0.12581932,0,0)" />
        <rect
           ry="3.7500002"
           y="595.36462"
           x="221.44521"
           height="15.220252"
           width="16.827538"
           id="rect4314"
           style="fill:#000000;fill-opacity:1;stroke:none"
           transform="matrix(0.88011444,-0.4747616,0.4747616,0.88011444,0,0)" />
        <rect
           style="fill:#000000;fill-opacity:1;stroke:none"
           id="rect4316"
           width="16.827538"
           height="15.220252"
           x="603.00116"
           y="141.86266"
           ry="3.7500002"
           transform="matrix(0.87984517,0.47526044,-0.47526044,0.87984517,0,0)" />
        <rect
           ry="3.7500002"
           y="-374.44"
           x="477.53125"
           height="15.220252"
           width="16.827538"
           id="rect4318"
           style="fill:#000000;fill-opacity:1;stroke:none"
           transform="matrix(0.19276644,0.98124467,-0.98124467,0.19276644,0,0)" />
        <rect
           style="fill:#000000;fill-opacity:1;stroke:none"
           id="rect4320"
           width="16.827538"
           height="15.220252"
           x="17.971388"
           y="-605.82788"
           ry="3.7500002"
           transform="matrix(-0.60942316,0.79284514,-0.79284514,-0.60942316,0,0)" />
      </g>
      <g
         id="g4350"
         transform="matrix(0.53227781,0,0,0.53227781,195.14521,231.43108)">
        <path
           transform="translate(0.17857142,-0.53571428)"
           d="m 496.01016,401.38004 c 0,10.3708 -8.4072,18.77801 -18.77801,18.77801 -10.37081,0 -18.77801,-8.40721 -18.77801,-18.77801 0,-10.37081 8.4072,-18.77802 18.77801,-18.77802 10.37081,0 18.77801,8.40721 18.77801,18.77802 z"
           sodipodi:ry="18.778011"
           sodipodi:rx="18.778011"
           sodipodi:cy="401.38004"
           sodipodi:cx="477.23215"
           id="path4352"
           style="fill:none;stroke:#000000;stroke-width:5.9000001;stroke-linecap:round;stroke-linejoin:round;stroke-miterlimit:4;stroke-opacity:1;stroke-dasharray:none"
           sodipodi:type="arc" />
        <rect
           ry="3.7500002"
           y="369.48416"
           x="469.24316"
           height="15.220252"
           width="16.827538"
           id="rect4354"
           style="fill:#000000;fill-opacity:1;stroke:none" />
        <rect
           transform="matrix(0.64610481,0.7632487,-0.7632487,0.64610481,0,0)"
           style="fill:#000000;fill-opacity:1;stroke:none"
           id="rect4356"
           width="16.827538"
           height="15.220252"
           x="606.41736"
           y="-137.55888"
           ry="3.7500002" />
        <rect
           transform="matrix(-0.12581932,0.99205317,-0.99205317,-0.12581932,0,0)"
           ry="3.7500002"
           y="-555.76855"
           x="330.79105"
           height="15.220252"
           width="16.827538"
           id="rect4358"
           style="fill:#000000;fill-opacity:1;stroke:none" />
        <rect
           transform="matrix(0.88011444,-0.4747616,0.4747616,0.88011444,0,0)"
           style="fill:#000000;fill-opacity:1;stroke:none"
           id="rect4360"
           width="16.827538"
           height="15.220252"
           x="221.44521"
           y="595.36462"
           ry="3.7500002" />
        <rect
           transform="matrix(0.87984517,0.47526044,-0.47526044,0.87984517,0,0)"
           ry="3.7500002"
           y="141.86266"
           x="603.00116"
           height="15.220252"
           width="16.827538"
           id="rect4362"
           style="fill:#000000;fill-opacity:1;stroke:none" />
        <rect
           transform="matrix(0.19276644,0.98124467,-0.98124467,0.19276644,0,0)"
           style="fill:#000000;fill-opacity:1;stroke:none"
           id="rect4364"
           width="16.827538"
           height="15.220252"
           x="477.53125"
           y="-374.44"
           ry="3.7500002" />
        <rect
           transform="matrix(-0.60942316,0.79284514,-0.79284514,-0.60942316,0,0)"
           ry="3.7500002"
           y="-605.82788"
           x="17.971388"
           height="15.220252"
           width="16.827538"
           id="rect4366"
           style="fill:#000000;fill-opacity:1;stroke:none" />
      </g>
    </g>
    <g
       id="g4414"
       transform="translate(-305.75783,142.60121)">
      <path
         style="fill:#000000;fill-opacity:1;stroke:none"
         d="m 435.07077,461.78347 c -25.38408,0 -45.96875,20.58467 -45.96875,45.96875 0,25.38408 20.58467,45.96875 45.96875,45.96875 25.38407,0 45.9375,-20.58467 45.9375,-45.96875 0,-25.38408 -20.55343,-45.96875 -45.9375,-45.96875 z m -0.21875,10.53125 a 7.15625,7.15625 0 0 1 7.34375,7.125 l 0,21.15625 21.15625,0 a 7.15625,7.15625 0 0 1 0,14.3125 l -21.15625,0 0,21.125 a 7.15625,7.15625 0 0 1 -14.3125,0 l 0,-21.125 -21.125,0 a 7.15625,7.15625 0 1 1 0,-14.3125 l 21.125,0 0,-21.15625 a 7.15625,7.15625 0 0 1 6.96875,-7.125 z"
         id="path4388"
         inkscape:connector-curvature="0" />
      <path
         inkscape:connector-curvature="0"
         id="path4434"
         d="m 435.07077,461.78347 c -25.38408,0 -45.96875,20.58467 -45.96875,45.96875 0,25.38408 20.58467,45.96875 45.96875,45.96875 25.38407,0 45.9375,-20.58467 45.9375,-45.96875 0,-25.38408 -20.55343,-45.96875 -45.9375,-45.96875 z m -0.21875,10.53125 a 7.15625,7.15625 0 0 1 7.34375,7.125 l 0,21.15625 21.15625,0 a 7.15625,7.15625 0 0 1 0,14.3125 l -21.15625,0 0,21.125 a 7.15625,7.15625 0 0 1 -14.3125,0 l 0,-21.125 -21.125,0 a 7.15625,7.15625 0 1 1 0,-14.3125 l 21.125,0 0,-21.15625 a 7.15625,7.15625 0 0 1 6.96875,-7.125 z"
         style="fill:#000000;fill-opacity:1;stroke:none" />
    </g>
    <g
       id="g4394" />
    <g
       id="g4428"
       transform="matrix(0,1,-1,0,898.23437,154.14062)" />
    <g
       id="g4436"
       transform="matrix(0.70710678,0.70710678,-0.70710678,0.70710678,76.656196,-13.786664)">
      <path
         inkscape:connector-curvature="0"
         id="path4438"
         d="m 435.07077,461.78347 c -25.38408,0 -45.96875,20.58467 -45.96875,45.96875 0,25.38408 20.58467,45.96875 45.96875,45.96875 25.38407,0 45.9375,-20.58467 45.9375,-45.96875 0,-25.38408 -20.55343,-45.96875 -45.9375,-45.96875 z m -0.21875,10.53125 a 7.15625,7.15625 0 0 1 7.34375,7.125 l 0,21.15625 21.15625,0 a 7.15625,7.15625 0 0 1 0,14.3125 l -21.15625,0 0,21.125 a 7.15625,7.15625 0 0 1 -14.3125,0 l 0,-21.125 -21.125,0 a 7.15625,7.15625 0 1 1 0,-14.3125 l 21.125,0 0,-21.15625 a 7.15625,7.15625 0 0 1 6.96875,-7.125 z"
         style="fill:#000000;fill-opacity:1;stroke:none" />
      <path
         style="fill:#000000;fill-opacity:1;stroke:none"
         d="m 435.07077,461.78347 c -25.38408,0 -45.96875,20.58467 -45.96875,45.96875 0,25.38408 20.58467,45.96875 45.96875,45.96875 25.38407,0 45.9375,-20.58467 45.9375,-45.96875 0,-25.38408 -20.55343,-45.96875 -45.9375,-45.96875 z m -0.21875,10.53125 a 7.15625,7.15625 0 0 1 7.34375,7.125 l 0,21.15625 21.15625,0 a 7.15625,7.15625 0 0 1 0,14.3125 l -21.15625,0 0,21.125 a 7.15625,7.15625 0 0 1 -14.3125,0 l 0,-21.125 -21.125,0 a 7.15625,7.15625 0 1 1 0,-14.3125 l 21.125,0 0,-21.15625 a 7.15625,7.15625 0 0 1 6.96875,-7.125 z"
         id="path4440"
         inkscape:connector-curvature="0" />
    </g>
    <g
       id="g4456"
       transform="translate(-169.09137,-179.23496)">
      <g
         style="stroke:#000000;stroke-opacity:1"
         transform="translate(-29.285713,109.28572)"
         id="g4446">
        <path
           sodipodi:type="arc"
           style="fill:none;stroke:#000000;stroke-width:11.30000019;stroke-linecap:round;stroke-miterlimit:4;stroke-opacity:1;stroke-dasharray:none"
           id="path4442"
           sodipodi:cx="412.26849"
           sodipodi:cy="583.90393"
           sodipodi:rx="34.723991"
           sodipodi:ry="34.723991"
           d="m 379.89511,571.34529 c 6.93594,-17.87933 27.0527,-26.75069 44.93202,-19.81475 9.63025,3.73588 17.09733,11.56527 20.37305,21.3616"
           transform="translate(38.133258,30.430846)"
           sodipodi:start="3.5116516"
           sodipodi:end="5.9604905"
           sodipodi:open="true" />
        <path
           style="fill:none;stroke:#000000;stroke-width:9.92055798;stroke-linecap:round;stroke-linejoin:round;stroke-miterlimit:4;stroke-opacity:1;stroke-dasharray:none"
           d="m 465.33593,604.66257 22.47844,4.5532 4.55319,-22.47844"
           id="path4444"
           inkscape:connector-curvature="0" />
      </g>
      <g
         style="stroke:#000000;stroke-opacity:1"
         transform="matrix(-1,0,0,-1,871.07658,1337.0618)"
         id="g4450">
        <path
           sodipodi:open="true"
           sodipodi:end="5.9604905"
           sodipodi:start="3.5116516"
           transform="translate(38.133258,30.430846)"
           d="m 379.89511,571.34529 c 6.93594,-17.87933 27.0527,-26.75069 44.93202,-19.81475 9.63025,3.73588 17.09733,11.56527 20.37305,21.3616"
           sodipodi:ry="34.723991"
           sodipodi:rx="34.723991"
           sodipodi:cy="583.90393"
           sodipodi:cx="412.26849"
           id="path4452"
           style="fill:none;stroke:#000000;stroke-width:11.30000019;stroke-linecap:round;stroke-miterlimit:4;stroke-opacity:1;stroke-dasharray:none"
           sodipodi:type="arc" />
        <path
           inkscape:connector-curvature="0"
           id="path4454"
           d="m 465.33593,604.66257 22.47844,4.5532 4.55319,-22.47844"
           style="fill:none;stroke:#000000;stroke-width:9.92055798;stroke-linecap:round;stroke-linejoin:round;stroke-miterlimit:4;stroke-opacity:1;stroke-dasharray:none" />
      </g>
    </g>
  </g>
</svg>
